<svg viewBox="0 0 197.38 102.15" xmlns="http://www.w3.org/2000/svg" data-name="Layer 2" id="Layer_2">
  <defs>
    <style>
      .cls-1 {
        fill: #004d71;
      }

      .cls-2 {
        fill: #f4b223;
      }
    </style>
  </defs>
  <g data-name="Layer 1-2" id="Layer_1-2">
    <g>
      <g>
        <path d="M18.84,86.24c-.37-.32-.74-.27-1.11.16-1.01,1.37-2.16,2.33-3.61,3.01-3.19,1.51-6.65.2-8.22-3.11-.74-1.56-.85-3.28-.31-4.84.53-1.53,1.63-2.76,3.08-3.45,1.71-.81,3.23-.87,4.57-.83.46-.09.72-.35.77-.79v-3.28c-.04-.63-.46-.8-.82-.83-1.38-.04-3.57.06-6.46,1.43-5.83,2.77-8.32,9.31-5.67,14.89h0c2,4.21,5.45,6.47,9.47,6.47,1.78,0,3.67-.44,5.59-1.36,2.28-1.08,3.94-2.39,5.35-4.23.33-.38.29-.81-.1-1.15l-2.54-2.09h.01Z" class="cls-1"></path>
        <path d="M39.56,70.87c-.92-2.71-2.85-4.79-5.29-5.69-1.85-.72-3.95-.72-6.08,0-2.12.72-3.78,1.99-4.8,3.68-1.38,2.23-1.65,5.05-.74,7.74l3.82,11.29c.12.34.45.56.8.56.09,0,.17-.01.26-.04l3.29-1.11c.2-.07.38-.22.48-.42s.11-.43.05-.63l-1.77-5.22,7.18-2.43,1.77,5.22c.07.2.22.38.42.48.2.1.43.12.63.05l3.29-1.11c.43-.15.67-.63.52-1.06l-3.83-11.29v-.02ZM28.08,76.61l-.51-1.49c-.46-1.37-.46-2.58.02-3.59.41-.83,1.13-1.42,2.15-1.77,1.01-.34,2-.31,2.83.08.99.54,1.72,1.5,2.18,2.86l.51,1.49-7.18,2.43h0Z" class="cls-1"></path>
        <path d="M66.52,56.2c-.19-.12-.42-.16-.64-.12l-3.44.68c-.48.09-.83.28-1,.89l-3.62,10.63-7.38-8.44c-.42-.49-.82-.53-1.29-.44l-3.41.68c-.47.09-.77.53-.68.98l3.86,19.48c.08.39.43.67.83.67.06,0,.12,0,.17-.02l3.23-.64c.47-.09.77-.53.68-.98l-2.2-11.1,5.04,5.65c.25.3.58.58,1.17.46l2.48-.49c.56-.11.76-.42.91-.87l2.39-7.1,2.2,11.07c.09.45.54.74,1.01.65l3.23-.64c.47-.09.77-.53.68-.98l-3.86-19.48c-.04-.22-.18-.41-.37-.53h.01Z" class="cls-1"></path>
        <path d="M92.42,70.93c-.17-.13-.39-.2-.61-.18l-10.4.75-.28-3.85,8.81-.63c.22-.02.43-.12.57-.3.14-.17.21-.39.2-.62l-.21-2.95c-.03-.45-.43-.8-.89-.77l-8.81.63-.27-3.72,10.4-.75c.23-.02.44-.12.59-.28.15-.17.23-.39.21-.61l-.21-2.98c-.02-.22-.12-.41-.28-.56-.18-.15-.4-.23-.64-.21l-14.67,1.05c-.23.02-.44.12-.59.28-.15.17-.23.39-.21.61l1.42,19.81c.03.44.41.77.86.77h.06l14.67-1.05c.47-.03.83-.43.8-.89l-.21-2.95c-.02-.24-.13-.45-.31-.59h0Z" class="cls-1"></path>
        <path d="M116.2,61.52c.09-2.38-.76-4.47-2.34-5.73-1.31-1.04-3.07-1.59-5.41-1.68l-8.9-.34c-.22,0-.45.07-.61.22-.17.15-.27.36-.28.58l-.75,19.84c-.02.46.35.85.83.86l3.44.13c.23,0,.45-.07.61-.23.15-.15.24-.35.25-.57l.24-6.36,3.35.13,3.71,6.69c.3.62.75.68,1.19.7l3.81.15h.05c.4,0,.59-.2.67-.33.16-.26.14-.63-.07-1.02l-4.02-6.81c.6-.26,1.1-.56,1.59-.94,1.65-1.29,2.57-3.12,2.65-5.28h-.01ZM109.83,63.56c-.62.38-1.56.4-2.49.36l-3.89-.15.2-5.38,4.26.16c.93.04,1.65.23,2.17.6.64.49.95,1.24.91,2.23-.04.99-.45,1.76-1.17,2.18h0Z" class="cls-1"></path>
        <path d="M133.26,56.32c-3.03-.48-6.03.15-8.45,1.78-2.51,1.68-4.15,4.3-4.64,7.37-.48,3.06.28,6.04,2.15,8.4,1.8,2.28,4.47,3.8,7.5,4.28.69.11,1.37.16,2.03.16,5.57,0,10.15-3.71,11.02-9.25.49-3.07-.27-6.07-2.14-8.44-1.8-2.29-4.45-3.81-7.47-4.29h0ZM137.52,68.21c-.56,3.54-3.48,5.71-6.95,5.16-3.49-.55-5.61-3.52-5.05-7.06.27-1.69,1.12-3.14,2.4-4.1,1.02-.76,2.26-1.16,3.56-1.16.34,0,.68.03,1.02.08,3.41.54,5.57,3.58,5.02,7.08h0Z" class="cls-1"></path>
        <path d="M168.48,65.01l-3.16-.92c-.21-.06-.44-.03-.63.07-.19.11-.34.29-.4.49l-3.32,11.45-5.56-14.23c-.18-.47-.38-.78-.9-.93l-2.93-.85c-.22-.06-.45-.04-.65.06-.2.1-.35.29-.41.5l-5.53,19.07c-.13.44.14.91.6,1.04l3.13.91c.21.06.44.03.63-.07.19-.11.34-.29.4-.49l3.31-11.42,5.55,14.21c.2.6.5.79.94.92l2.93.85c.07.02.15.03.22.03.14,0,.28-.04.41-.11.19-.11.34-.29.4-.49l5.53-19.07c.13-.43-.13-.91-.57-1.03h0Z" class="cls-1"></path>
        <path d="M179.15,72.77c.79-2.25.15-3.96-1.74-4.69-.78-.3-1.55-.32-2.21-.05s-1.16.8-1.44,1.53c-.49,1.28,0,2.03.37,2.57.27.41.4.61.28.91-.24.63-1.17.84-1.85.99l-.1.02c-.48.13-.72.52-.62.99l.15.76c.13.49.5.62.85.69h.04c.16.02.33.03.5.03,2.46,0,4.98-1.61,5.77-3.76h0Z" class="cls-1"></path>
        <path d="M197.21,78.56c-1.36-1.85-3.16-3.27-5.5-4.37-2.25-1.05-4.36-1.4-6.1-1.01-1.81.35-3.26,1.49-4.06,3.22-1.23,2.63-.37,4.53.38,5.75.82,1.26,1.94,2.27,2.93,3.16.43.38.84.76,1.21,1.13,1.25,1.21,1.62,2.07,1.24,2.88-.15.32-.51.87-1.29,1.02-.56.12-1.34-.03-2.18-.43-2.07-.96-3.2-2.54-4.1-3.94-.16-.25-.37-.33-.52-.36-.21-.04-.44.03-.64.19l-2.52,2.08c-.35.28-.42.74-.15,1.11,1,1.48,2.87,3.55,6.07,5.04,1.49.7,3.01,1.05,4.43,1.05.6,0,1.17-.06,1.72-.19,1.96-.43,3.47-1.67,4.36-3.58.9-1.94.84-3.82-.2-5.58-.84-1.47-2.18-2.61-3.36-3.62-.36-.31-.71-.61-1.04-.91-1.32-1.25-1.71-2.01-1.38-2.71.19-.4.53-.65.99-.74.55-.07,1.29.09,2.06.45,1.41.66,2.67,1.76,3.84,3.34.16.25.36.33.5.36.21.04.42-.01.64-.17l2.5-2.07c.19-.13.3-.32.33-.53s-.03-.43-.17-.6v.03Z" class="cls-1"></path>
      </g>
      <path d="M109.84,14.18h-22.25c-1.03,0-1.8.84-1.72,1.86.01.18.03.39.05.68.01.18-.12.31-.3.32-1.81.02-3.29,1.08-3.89,2.79-.12.34-.18.7-.24,1.06v1.21s.02.08.03.12c.26,1.75,1.08,3.19,2.43,4.33,1.29,1.08,2.75,1.63,4.46,1.36.11-.02.17.02.21.12.11.25.23.49.35.73.77,1.54,1.67,2.99,2.81,4.26.54.6,1.32.92,2.12.91h9.71c.85,0,1.66-.42,2.2-1.07.99-1.18,1.86-2.45,2.54-3.83,1.97-3.97,2.91-8.18,3.18-12.54.02-.3.02-.27.03-.46.08-1.03-.69-1.86-1.72-1.86h0ZM87.51,25.76c-.08,0-.16-.01-.24-.02-.88-.13-1.62-.55-2.24-1.18-.94-.96-1.48-2.09-1.37-3.46.1-1.29,1.05-2.11,2.34-2.03.16.01.24.06.26.23.28,2.11.75,4.17,1.44,6.18q.1.28-.2.28h0Z" class="cls-1"></path>
      <g>
        <path d="M113.94,14.3v1.8h-.29v-1.8h-.69v-.27h1.67v.27s-.69,0-.69,0Z" class="cls-1"></path>
        <path d="M117.05,16.1v-1.61l-.71,1.61h-.26l-.7-1.61v1.61h-.28v-2.07h.39l.73,1.68.74-1.68h.38v2.07h-.29Z" class="cls-1"></path>
      </g>
      <path d="M193.23,94.98c1.02,0,1.84.83,1.84,1.85s-.82,1.85-1.84,1.85-1.82-.84-1.82-1.85.81-1.85,1.82-1.85ZM193.23,98.32c.8,0,1.43-.65,1.43-1.49s-.63-1.48-1.43-1.48-1.43.64-1.43,1.48.63,1.49,1.43,1.49ZM193,97.82h-.38v-2.01h.7c.39,0,.68.28.68.63,0,.28-.18.51-.44.6l.45.79h-.44l-.42-.75h-.15v.75h0ZM193.26,96.74c.23,0,.35-.11.35-.3,0-.2-.12-.31-.35-.31h-.26v.6h.26Z" class="cls-1"></path>
      <g>
        <path d="M53.98,98.54c-.19-.16-.4-.29-.63-.39s-.46-.19-.68-.25l-.32-.1c-.29-.09-.52-.19-.71-.28s-.28-.24-.28-.45c0-.19.08-.32.23-.39.16-.08.32-.11.49-.11.27,0,.52.05.78.16.25.11.5.25.73.42l.9-1.14c-.1-.11-.26-.23-.47-.36-.21-.13-.48-.25-.8-.35s-.7-.15-1.14-.15c-.55,0-1.02.09-1.4.28-.39.19-.68.45-.87.77-.2.33-.29.69-.29,1.11,0,.36.09.66.26.91.18.25.4.45.67.6.27.16.54.28.81.37l.37.12c.33.11.59.22.77.33.18.12.27.26.27.43,0,.21-.08.35-.25.42s-.34.11-.52.11c-.35,0-.68-.08-.98-.23s-.55-.32-.73-.51l-1.07,1.29c.31.29.69.53,1.14.71s1,.27,1.67.27c.5,0,.95-.09,1.36-.27s.73-.43.98-.75.36-.68.36-1.09c0-.35-.06-.65-.17-.89-.12-.24-.27-.44-.46-.6h-.02Z" class="cls-1"></path>
        <path d="M58.79,95.33h-2.71v6.65h1.72v-2.21h1.04c.45,0,.85-.09,1.2-.27.35-.18.62-.44.82-.78s.3-.73.3-1.18c0-.72-.22-1.26-.65-1.64s-1-.56-1.71-.56h-.01ZM59.21,98.15c-.14.15-.33.23-.57.23h-.84v-1.65h.83c.26,0,.46.08.59.23s.2.36.2.61-.07.44-.21.59h0Z" class="cls-1"></path>
        <polygon points="64.34 99.32 66.82 99.32 66.82 97.88 64.34 97.88 64.34 96.85 67.36 96.85 67.36 95.33 62.58 95.33 62.58 101.98 67.57 101.98 67.57 100.45 64.34 100.45 64.34 99.32" class="cls-1"></polygon>
        <path d="M73.05,100.26c-.24.14-.55.21-.95.21-.35,0-.66-.08-.93-.24-.27-.16-.47-.38-.61-.66s-.21-.6-.21-.95.07-.66.21-.93c.14-.28.34-.49.6-.66.26-.16.58-.24.95-.24.33,0,.63.08.89.23s.48.36.67.61l1.17-1.18c-.34-.48-.76-.81-1.25-1.01-.5-.19-1.03-.29-1.6-.29-.68,0-1.29.15-1.8.46-.52.31-.92.72-1.22,1.25-.29.53-.44,1.13-.44,1.81s.15,1.28.44,1.8c.29.52.7.93,1.22,1.23s1.12.45,1.8.45c1.23,0,2.21-.47,2.96-1.4l-1.19-1.12c-.23.29-.47.5-.71.64h0Z" class="cls-1"></path>
        <rect height="6.65" width="1.76" y="95.33" x="76.14" class="cls-1"></rect>
        <path d="M81.53,95.33l-2.44,6.65h1.82l.44-1.38h2.22l.43,1.38h1.9l-2.35-6.65h-2.02ZM81.71,99.32l.77-2.44.74,2.44h-1.51Z" class="cls-1"></path>
        <polygon points="88.85 95.33 87.09 95.33 87.09 101.98 91.93 101.98 91.93 100.42 88.85 100.42 88.85 95.33" class="cls-1"></polygon>
        <polygon points="91.43 96.87 93.47 96.87 93.47 101.98 95.26 101.98 95.26 96.87 97.28 96.87 97.28 95.33 91.43 95.33 91.43 96.87" class="cls-1"></polygon>
        <polygon points="101.42 97.7 100.13 95.33 98.11 95.33 100.47 99.33 100.47 101.98 102.23 101.98 102.23 99.32 104.6 95.33 102.64 95.33 101.42 97.7" class="cls-1"></polygon>
        <path d="M112.44,100.26c-.24.14-.55.21-.95.21-.35,0-.66-.08-.93-.24-.27-.16-.47-.38-.61-.66-.14-.28-.21-.6-.21-.95s.07-.66.21-.93c.14-.28.34-.49.6-.66s.58-.24.95-.24c.33,0,.63.08.89.23s.48.36.67.61l1.17-1.18c-.34-.48-.75-.81-1.25-1.01-.49-.19-1.03-.29-1.6-.29-.68,0-1.29.15-1.8.46-.52.31-.92.72-1.21,1.25s-.44,1.13-.44,1.81.15,1.28.44,1.8c.29.52.7.93,1.22,1.23s1.12.45,1.8.45c1.23,0,2.21-.47,2.96-1.4l-1.19-1.12c-.23.29-.47.5-.71.64h0Z" class="cls-1"></path>
        <path d="M121.03,96.14c-.31-.31-.68-.55-1.1-.73-.42-.17-.88-.26-1.38-.26s-.96.09-1.38.26c-.42.17-.79.42-1.1.73-.31.31-.55.68-.72,1.11s-.26.89-.26,1.4.09.97.26,1.39c.17.43.41.8.72,1.11.31.32.67.56,1.1.73.42.17.88.26,1.38.26s.96-.09,1.38-.26c.42-.17.79-.42,1.1-.73.31-.32.55-.69.72-1.11s.25-.89.25-1.39-.08-.97-.25-1.4c-.17-.42-.41-.79-.72-1.11ZM119.99,99.56c-.13.28-.31.5-.55.67-.24.17-.54.25-.89.25s-.64-.08-.88-.25-.43-.39-.56-.67-.19-.59-.19-.93.06-.65.19-.93c.13-.28.31-.5.56-.67.24-.17.54-.25.88-.25s.65.08.89.25.43.39.55.67c.13.28.19.59.19.93s-.06.65-.19.93Z" class="cls-1"></path>
        <polygon points="123.49 101.98 125.25 101.98 125.25 99.61 127.48 99.61 127.48 98.16 125.25 98.16 125.25 96.87 128.12 96.87 128.12 95.33 123.49 95.33 123.49 101.98" class="cls-1"></polygon>
        <polygon points="129.47 101.98 131.23 101.98 131.23 99.61 133.45 99.61 133.45 98.16 131.23 98.16 131.23 96.87 134.1 96.87 134.1 95.33 129.47 95.33 129.47 101.98" class="cls-1"></polygon>
        <polygon points="137.21 99.32 139.69 99.32 139.69 97.88 137.21 97.88 137.21 96.85 140.23 96.85 140.23 95.33 135.45 95.33 135.45 101.98 140.44 101.98 140.44 100.45 137.21 100.45 137.21 99.32" class="cls-1"></polygon>
        <polygon points="143.66 100.45 143.66 99.32 146.15 99.32 146.15 97.88 143.66 97.88 143.66 96.85 146.68 96.85 146.68 95.33 141.9 95.33 141.9 101.98 146.89 101.98 146.89 100.45 143.66 100.45" class="cls-1"></polygon>
      </g>
      <g>
        <path d="M86.47,5.51l2.89,3.04c.09.09.23.08.31-.01.31-.35.64-.67.99-.98.09-.08.1-.22.01-.31l-3.06-2.88c-.24-.24-.63-.24-.87,0l-.27.27c-.24.24-.24.63,0,.87Z" class="cls-2"></path>
        <path d="M93.63.88l.98,4.08c.03.12.16.18.27.15.44-.15.89-.26,1.35-.36.12-.02.2-.14.16-.26l-1.21-4.02c-.09-.33-.43-.52-.76-.44l-.37.1c-.33.09-.52.43-.44.76h.02Z" class="cls-2"></path>
        <path d="M102.14.46l-1.18,4.03c-.03.12.04.24.16.26.46.09.91.22,1.35.36.12.04.24-.03.27-.15l.95-4.09c.09-.33-.11-.67-.44-.75l-.37-.1c-.33-.09-.67.11-.75.44h.01Z" class="cls-2"></path>
        <path d="M109.72,4.34l-3.03,2.9c-.09.09-.08.23.01.31.35.31.68.64.99.99.08.09.22.1.31,0l2.86-3.07c.24-.24.24-.63,0-.87l-.27-.27c-.24-.24-.63-.24-.87,0h0Z" class="cls-2"></path>
        <path d="M106.62,11.86c.32,0,.53-.36.36-.63-.81-1.25-1.92-2.34-3.3-3.14-1.53-.88-3.23-1.33-4.95-1.32-1.72-.01-3.42.43-4.95,1.32-1.38.8-2.48,1.88-3.3,3.14-.18.27.03.63.36.63h15.78Z" class="cls-2"></path>
      </g>
    </g>
  </g>
</svg>