<?xml version="1.0" encoding="utf-8"?>
<!-- Generator: Adobe Illustrator 25.2.3, SVG Export Plug-In . SVG Version: 6.00 Build 0)  -->
<svg version="1.1" xmlns="http://www.w3.org/2000/svg" xmlns:xlink="http://www.w3.org/1999/xlink" x="0px" y="0px" width="899.6px"
	 height="552.8px" viewBox="0 0 899.6 552.8" style="enable-background:new 0 0 899.6 552.8;" xml:space="preserve">
<style type="text/css">
	.st0{fill:#2061AA;}
	.st1{fill:#E14B3A;}
	.st2{fill:#BAA26F;}
</style>
<g id="Layer_4">
	<path class="st0" d="M357.1,198.7l-6.8,7.5l-212.8,0.9c0,0-22.7-2.1-59.7,17.1c0,0-45.8,22.3-51.7,80.3c0,0-7.6,60.3,55.6,96.3
		c0,0,23.5,13.7,46.7,13.8l628.2,1.6c0,0,75.4,2.4,107.9-63.7c0,0,25.1-41.8-6-92c0,0-30.6-56.3-104.7-53.8l-145.6-0.6l-8.2-8
		l151.9,0.7c0,0,50.1-4.6,93.9,32.7c0,0,39.1,32.1,36.1,89.2c0,0-1.7,63.2-68.6,92.1c0,0-23.7,14.1-84.1,10.5l-601.8,0.1
		c0,0-66.6-1.6-101.5-68.9c0,0-29.3-58.3,18.8-113.8c0,0,36.4-46.7,106-41.6L357.1,198.7z"/>
</g>
<g id="Layer_1">
	<g transform="translate(0.000000,612.000000) scale(0.100000,-0.100000)">
		<path class="st0" d="M5945.1,3604c-85.7-89.8-212.8-131.8-336.9-134.9c-124.1-3.2-246.5,28.9-364,68.8
			c-258.6,87.8-502.8,214.3-732.7,361.6c-114.3,73.3-227.1,152.6-355.6,196.3c-1.7,0.6-3.4,1.1-5.1,1.7
			c-107.2,35.4-228.8,42.4-331.3,0c-19.4-7.9-38.2-17.8-56-29.5c-113.5-74.6-169.1-241.1-93.9-354.2c13.2-19.9,30-37.9,38.3-60.4
			c19.1-52.1-17.8-113.3-69.8-132.6c-41.4-15.4-120.2-11.3-151.9,25.1c-25.2,29-26.4,93.3-25.1,129.5
			c3.7,105.2,54.7,205.5,115.8,288.9c35,47.7,74.3,93,117.9,133.2c56,51.7,119.1,94.9,189.4,124.2c125,51.9,274.3,54.8,391.7-12.5
			c-19,132.8-19.3,268.3-0.8,401.2c-148.9-100.2-370.8-56.7-482.9,83.5c-112.1,140.2-111.3,354.2-11.1,503.1
			c120.5,178.9,343.5,250.7,529.6,359.8c63.4,37.1,128.2,86.1,144.8,157.7c23.6,101.6-74.8,204.8-179,205.5
			c-104.3,0.6-196.9-81.8-231-180.4c-16.4-47.3-24.5-102.6-64.5-132.6c-47.3-35.4-122.2-12.8-152.6,37.9
			c-30.4,50.6-21.4,118.2,10.6,167.8c31.9,49.7,83.1,84,136.4,109.6c78.7,37.9,163.8,59.1,250.7,66.1
			c120.1,9.7,243.6-7.7,358.3-45.6c212.6-70.1,403.1-209.9,526.7-396.6c123.7-186.6,178.1-419.7,141.6-640.6
			c-25.1-151.5-98.2-302.7-228.3-384.1c-130.2-81.5-322.5-70.9-417.8,49.5c-14.7,18.6-28.5,40.4-50.9,48.2
			c-22.3,7.9-47-0.6-67.9-11.6c-137.6-72-196.5-263.6-122.9-400.4c23.2-43.1,55.9-78.7,93.6-109.7c48.2-39.7,104.4-71.8,159-102.3
			c291.2-162.7,586.7-327.1,910.2-408.5c76.9-19.3,158.1-33.7,234.8-13.8c76.7,19.9,147.3,83,152.3,162.1
			c-77.5-14.7-163.1-28-230.7,12.6c-106.4,63.9-93.1,246.5,14.3,308.8c107.4,62.3,259.3,2.8,313.5-108.9
			C6066.1,3835.8,6030.8,3693.8,5945.1,3604z"/>
		<path class="st0" d="M4610.8,4133c0-3,10-10,23-16c12-5,40-21,62-34l40-25h405h405l28,40l28,40h-495
			C4833.8,4138,4610.8,4136,4610.8,4133z"/>
		<path class="st1" d="M1515.8,3768.4c-227.4-24.2-445.8-144.7-579.5-331.3c-34.8-48.5-64.2-100.8-87.5-155.7
			c-49.9-117.4-71.6-248.3-51.1-374.2c51-314.2,348.6-465.2,640.1-494.5c163.3-16.4,328.5,2.1,489.3,34.9
			c6.7,32.2,13.5,64.5,20.2,96.7c-18-6.9-38.3,7.8-44.7,25.9s-2.7,38.1,1,56.9c21.4,108.8,42.8,217.6,64.1,326.4
			c5.7,28.9,12.2,59.6,32.7,80.8c11.3,11.7,26,19.5,37.9,30.6c32.7,30.4,39.4,78.9,44.1,123.3c-138.2-1.7-276.3-3.4-414.5-5
			c-8.2-36.8-16.5-73.6-24.7-110.4c23.2,3.9,45-16.2,51.7-38.8c6.6-22.6,2.1-46.8-2.6-69.9c-22.7-113.6-45.4-227.1-68.1-340.7
			c-84.6-3-170.5-2.1-252.5,19.1c-82,21.2-160.7,64.6-210.6,133.1c-42.9,58.9-61.8,132.5-66.7,205.2
			c-10.9,161.9,47.6,329.2,164.1,442.1s290.5,166.4,448.4,129c34.8-8.3,70.3-21.8,93.5-49.1s29.3-71.6,5.4-98.3
			c-13.8-15.4-37.6-28-34.4-48.5c1.6-10.6,10.4-18.3,18.7-25.1c12.9-10.6,25.8-21.2,38.6-31.8c5.3-4.4,11.2-9,18.1-9.2
			c7.9-0.2,14.5,5.5,20.3,10.8c85.5,78.1,171.1,156.1,256.6,234.2c-84.6,115.4-218.5,188.2-358.1,219.7
			C1683.5,3773.2,1599,3777.3,1515.8,3768.4z"/>
		<path class="st1" d="M7185.7,3770.9c-10.7-1.3-21.3-3.8-31.4-7.4c-48.1-17.2-86.1-57.6-105.8-104.7c-13.6-32.7-19-69.9-8.7-103.8
			s38.2-63.4,73.1-69.9c5.5-1,11.9-1.9,15.1-6.5c3.9-5.7,0.8-13.4-2.6-19.5c-25.9-46.7-60-88.9-100.4-123.8
			c-8.8-7.6-18.4-15.5-24.4-25.7c-8-13.6-5.7-19.1,3.6-30.5c18.8-23,39-44.7,60.8-64.8c3.4-3.1,7.3-6.4,11.9-6
			c3.8,0.3,6.9,3,9.6,5.5c91.7,84.2,181.1,176,230.5,290.2c16.6,38.3,28.5,79.4,27.6,121.1s-16.1,84.3-46.8,112.5
			C7268.1,3764.8,7225.9,3775.9,7185.7,3770.9z"/>
		<path class="st1" d="M2567.1,3372c-18.3-4.1-36.3-9.1-54-15c-153.6-50.6-286.9-160.4-365.9-301.5c-42.8-76.4-70.3-162.4-72.3-250
			c-5.2-224.2,168.1-391.5,388.9-396.9c119.9-2.9,236.9,34.5,348.8,77.7c9.8,3.8,19.9,7.8,26.9,15.5c8.3,9,11.2,21.7,13.8,33.7
			c13.7,64,27.3,128,40.9,192c1.4,6.7,2.8,14.2-0.6,20.1c-4.9,8.7-16.8,9.8-26.8,9.9c-17.7,0.1-35.3,0.3-53,0.4
			c-10.9,0.1-22.4,0-32-5c-12.9-6.8-19.8-20.8-27.4-33.2c-45.7-74.8-138.3-110.2-225.9-111.3c-44.9-0.6-92.6,7.7-126.1,37.5
			c-31.2,27.7-45.4,69.3-58.3,109c-2.2,6.8-4.4,14-2.9,20.9c3.7,16.7,24.9,21.2,41.9,22.7c79.7,7,158.7,21.1,235.9,42
			c84.3,22.8,168.5,55,233.3,113.4c64.8,58.4,107.4,147.6,91.2,233.4c-16.2,85.9-89.3,154.1-172.6,180.6
			C2705.3,3389,2634.7,3387.1,2567.1,3372z M2675.8,3176c20-9,25-18,25-48c0-77-114-149-267-167c-62-7-64-1-31,61
			C2476.8,3157,2583.8,3218,2675.8,3176z"/>
		<path class="st1" d="M3384.2,3366.7c-23.7-6.3-47.1-14.2-70.1-22.6c-34.7-12.7-69.2-27.1-99.3-48.5
			c-21.9-15.6-41.2-34.8-59.6-54.4c-53.7-57.2-102.4-120.2-135-191.5c-46.8-102.3-56.3-220.2-31.1-329.5
			c10.3-44.5,26.3-87.7,48-127.9c9.1-16.8,18.7-37.2,31.6-51.5c6.3-7,15.3-10.8,22.2-17.3c8.7-8.3,15.7-18.1,24-26.8
			c12.7-13.2,28.5-22.9,44.6-31.5c88.9-47.4,193.4-64.8,292.9-48.8s193.2,65.4,262.7,138.4c32.3,33.9,59.3,72.5,83.8,112.4
			c16.5,26.8,31.9,54.3,44.9,83c60.4,134.1,60.9,296.7-10.5,425.3s-216.9,216-363.6,206.2
			C3440.6,3379.6,3412.2,3374.2,3384.2,3366.7z M3542.1,3164.8c20.5-7.7,39.8-19.8,52.2-37.8c11.6-16.8,16.3-37.4,19.7-57.6
			c15.1-91.7,6.2-187.3-25.7-274.6c-16.7-45.8-40.1-90.1-74.6-124.6c-34.5-34.5-80.9-58.7-129.7-59.8c-41.8-0.9-85.1,17-111.4,50.1
			c-30.7,38.6-40.3,90.7-40.3,139.1c0,42.7,7.8,85,18,126.4c12.6,50.9,29.2,101.5,57.6,145.5c28.4,44,69.8,81.3,119.9,96.7
			c35.9,11,75.3,10.3,110.8-2.1C3539.6,3165.7,3540.8,3165.2,3542.1,3164.8z"/>
		<path class="st1" d="M4152.8,3368.1c-52.1-6.3-104.1-13.3-156-20.8c-7.6-33.1-15.3-66.2-22.9-99.4c24.2-0.5,48.3-1,72.5-1.6
			c4.7-0.1,10.1-0.5,13.2-4c3.5-4,2.6-10.1,1.5-15.3c0-19.9-9.3-43.6-13.5-63.1c-4.7-21.9-9.4-43.8-14.1-65.8
			c-9.4-43.8-18.8-87.7-28.1-131.5c-18.8-87.7-37.5-175.3-56.3-263c-9.2-43-18.4-85.9-27.6-128.9c-4.7-21.9-9.4-43.8-14.1-65.8
			c-2.3-10.5-4.5-21-6.8-31.6c-1.5-7.2-9.8-27.5-7.3-34.1c4.2-11.1,44.2-5.4,56.4-5.4c22.3,0,44.5,0,66.8-0.1
			c44.5,0,89-0.1,133.5-0.1c36.2,168.9,72.4,337.8,108.7,506.6c11.3,52.6,23,106.4,51.3,152.1c28.3,45.7,76.9,82.6,130.7,82
			c30.9-0.4,65.3-18.6,69-49.3c1.2-10.2-0.1-22.9,8.7-28.5c4.4-2.8,10-2.6,15.2-2.3c26.7,1.6,53.4,3.2,80,4.8
			c15.8,81.2,31.5,162.4,47.3,243.7c2.2,11.5,3.9,25-4.3,33.4c-6.4,6.5-16.4,7.3-25.5,7.4c-95.5,1.6-191.2-22.8-274.3-69.9
			c-7.6-4.3-19.1-7.9-23.5-0.4c-1.8,3.1-1.4,6.8-1,10.4c1.6,13.8,3.3,27.6,4.9,41.5c0.7,5.7,0.8,12.8-4,15.9
			c-2.9,1.9-6.7,1.7-10.2,1.3C4266.2,3381.2,4209.4,3375,4152.8,3368.1z"/>
		<path class="st1" d="M5840.7,3372.4c-56.2-6.7-112.2-14.4-168.1-22.8c-10-1.5-20.5-3.3-28.1-9.9c-9.7-8.5-12-22.4-13.6-35.2
			c-2.1-15.8-4.1-31.6-6.2-47.4c-0.4-3.4-0.8-7.1,1.3-9.8c2.2-2.9,6.3-3.3,9.9-3.5c17.1-0.9,34.1-1.2,51.2-0.9
			c-13-187.4-68.4-368.9-106.9-552.7c-10.5-50.2-24.2-111.7-1.9-160.2c20-43.4,48.3-83.9,92.4-105.6
			c69.5-34.3,153.7-10.9,222.5,24.6c17.7,9.2,35.1,19.1,51.3,30.8c25.1,18.1,47.2,40.4,65.1,65.7c1.3,1.9,2.7,3.9,2.7,6.2
			c0,2.3-1.3,4.3-2.5,6.2c-9.6,14.6-19.2,29.3-28.7,43.9c-8.3,12.7-18.9,26.7-34.1,27.3c-15.3,0.6-26.9-12.9-39.6-21.6
			c-17.1-11.7-39.6-15.2-59.4-9.2c-6.6,2-13.1,5.2-17.1,10.7c-6.7,9.1-4.7,21.7-2.5,32.8c50.2,248.4,100.4,496.9,150.6,745.3
			C5932.9,3382.9,5886.8,3377.9,5840.7,3372.4z"/>
		<path class="st1" d="M6511,3375.2c-92.6-6.9-184.4-25.6-269.8-61.7c-12.8-5.4-26.1-11.7-34.1-23.1c-6.5-9.2-8.8-20.8-11-31.9
			c-10.3-53.8-20.6-107.5-30.8-161.3c-1.6-8.6-2.7-19.1,4.2-24.6c3.4-2.8,8.1-3.5,12.4-4c15.7-1.9,31.9-2.8,47.2,1.1
			c30.8,7.8,53.3,33.3,79,51.9c69.9,50.4,163.1,49.6,249.2,46.8c25.9-0.9,54.1-2.6,73.4-19.9c16.9-15.2,22.8-38.7,27.6-60.9
			c1.8-8.4,3.5-17.6-0.5-25.2c-6-11.4-21.1-13.6-33.9-14.4c-101.7-6.6-204.3-16.3-300.9-48.7c-108.8-36.6-212.9-106-264.1-211.5
			c-6.8-14-12-28.7-16.1-43.7c-7.9-29.6-11-60.5-11-91.1c0-34.7,3.7-69.9,16.5-102.1c21.7-55.1,69.1-98,123.8-120.7
			c54.7-22.7,116.1-26.3,174.5-17.1c70.5,11.1,138,40.6,194,84.8c5,3.9,10,8,16,10c23.8,7.7,42.2-19.7,57.6-39.4
			c43.9-56.4,126.5-70.4,195.5-51.5c68.9,18.9,127,64.6,181.4,110.9c5.9,5,12.2,11.1,12,18.8c-0.2,5.5-3.7,10.3-7.2,14.6
			c-19.6,24.9-39.2,49.8-58.8,74.8c-22.7-17.8-49.5-30.3-77.7-36.2c-8.5-1.8-17.9-2.8-25.6,1.4c-14.1,7.8-14.1,27.7-11.9,43.7
			c21.1,154.4,70.7,304,88.3,458.8c3.7,32.3,5.9,65.4-1.1,97.2c-14.7,66.8-69.6,119.6-132.4,146.7s-132.9,31.9-201.3,30.7
			C6554,3377.7,6532.5,3376.8,6511,3375.2z M6610.8,2866c0-43-52-152-91-191c-59-60-199-68-213-13c-15,60,30,127,108,161
			c114,49,123,52,169,54C6598.8,2877,6610.8,2873,6610.8,2866z"/>
		<path class="st1" d="M7526.3,3362.5c-6.7-1.5-13.4-3.1-20-4.9c-81.2-21.2-160-61-213-126.1s-75.9-158.1-44-235.8
			c31.8-77.4,109.4-126,187.2-156.9c77.8-30.9,161.1-50,232.4-93.8c18.8-11.6,38.2-27.3,40.6-49.3c3.1-27-20.6-49.2-43.9-63.1
			c-77.3-46-176.5-53.1-259.7-18.8c-31.3,12.9-63.4,36.3-66.1,70c-1,12.6,2.4,25.2,2.3,37.9c-0.1,12.7-5,26.8-16.7,31.8
			c-9.9,4.2-21.6,0.2-31.2,5.1c-7.6,3.9-10.1,13-17.6,17c-7.9,4.3-17-2.7-23.1-9.2c-43.3-45.5-82.3-95-116.6-147.5
			c-13-19.9-41-48.1-22-70.6c20-23.8,50.9-41.2,77.8-56c133.5-73.1,292.8-97.9,442.2-68.7c100.6,19.7,199.5,65.6,263.8,145.4
			c64.4,79.8,87.4,197,39.8,287.8c-34.6,66-100.3,110.3-168.8,139.6c-68.5,29.3-141.6,46.1-210.9,73.4
			c-19.6,7.7-39.5,16.7-53.2,32.6c-13.8,15.9-19.7,40.5-8.4,58.2c6.7,10.7,18.3,17.3,29.8,22.6c61.7,28.5,134.6,31.8,198.6,9.1
			c15.5-5.5,30.8-12.7,42-24.7s17.5-29.6,12.5-45.3c-2-6.1-5.6-12-5.1-18.5c0.8-9.2,9.6-15.2,17.5-19.9
			c23.7-14.1,47.5-28.3,71.2-42.4c45.1,78,98.6,151.1,159.4,217.6C7882.3,3362.3,7696.4,3400.6,7526.3,3362.5z"/>
		<path class="st1" d="M5057,3339.4c-22.8-3.5-45.5-8.1-67.9-14.2c-188.6-51.3-340.8-211.1-393.3-399.3
			c-41.6-149.3-18.8-323.2,87.3-436.3c98.3-89.8,255.9-107,371.3-40.4c10.8,6.2,24.9,13,34.7,5.3c5.2-4.2,7.1-11.3,8.1-17.9
			c10.9-68.6-30.5-139.1-90.5-174c-60.1-34.9-134.8-38.1-202.2-21c-31.1,7.9-63.1,21.3-81.2,47.8s-15.5,68.9,12.4,84.8
			c-14.9,20.6-29.8,41.1-44.7,61.7c-2.7,3.8-6,7.9-10.6,8.7c-4.7,0.8-9.2-2.1-13.1-4.9c-18.3-9.2-35.5-25.5-52.2-37.4
			c-18.1-13-36.2-26-54.4-39c-18.1-13-36.2-26-54.4-39c-17.4-12.5-39-24-54.3-38.9c-20-19.5,19.5-64.2,32.8-81.3
			c21-27,46-50.7,73.5-71c38.2-28.2,81.4-49.6,126.8-63.7c103.9-32.2,216.5-27.7,322.7-4c68,15.2,135.1,38.4,193,77.1
			c57.9,38.7,106.3,94.1,128.2,160.3c12.4,37.6,16.1,77.4,20.4,116.8c25.7,233.3,78.6,462.6,131.5,691.3
			c7.9,34.3,16,69.1,32.3,100.3c23.5,45.1,64.6,85.9,61.9,136.7c-109,2.8-218.1,3.7-327.2,2.8
			C5184.3,3350.2,5119.9,3349,5057,3339.4z M5230.8,3156c0-13-9-61-20-108c-28-126-58-269-64-318c-7-48-31-76-93-109
			c-82-44-153-18-195,71c-30,64-30,148,0,234c24,68,23,66,79,131c66,76,153,118,251,120C5225.8,3178,5230.8,3175,5230.8,3156z"/>
		<path class="st0" d="M6923.8,1758c-42-10-87-55-102-102c-15-45,0-111,32-146c85-92,244-53,263,65c14,91-27,166-102,184
			C6970.8,1769,6967.8,1769,6923.8,1758z M7038.4,1722.4c13-9.1,24.2-20.9,33.6-33.7c15-20.4,26-44.3,27.6-69.5
			c1.5-24.2-5.8-48.3-17.7-69.4c-13-23-32-43-55.5-55c-22.6-11.6-48.9-15.4-74-11.6c-98.6,15.1-149.4,150.8-74.2,222.2
			c17.1,16.2,39.5,26,62.4,31.5c23.4,5.6,48.3,6.8,71.1-0.8C7021.2,1732.9,7030.1,1728.2,7038.4,1722.4z"/>
		<path class="st0" d="M6909.3,1613c0.1-6.1,0.2-10.5,0.3-12.1c0.4-11.5-3.5-90.3,19.8-81.2c7,2.7,10.3,10.9,11.2,18.4
			c1.1,10.2-0.9,20.5-0.5,30.8c0.3,10.3,3.7,21.5,12.4,26.9c9.5,6,22.7,2.9,30.9-4.8s11.9-19,13.4-30.2c1.4-10.5,1.2-21.7,6.6-30.9
			c5.3-9.2,19.2-14.4,26.6-6.8c3.9,4,4.6,10.1,4.7,15.8c0.3,26.3-9,52.5-25.8,72.7c-0.7,0.8-1.4,1.7-1.6,2.7c-0.7,3.5,3.8,5.3,7,6.7
			c11.9,5.1,15.1,20.3,15.7,33.2c0.6,11.5,0.2,23.9-6.8,33c-5.3,6.9-13.6,10.8-21.8,13.5c-28.9,9.6-60.2,8-90.6,6.2
			C6907.8,1706.7,6908.7,1641.3,6909.3,1613z M6995.8,1658c0-9-11-16-27-18c-23-3-28,1-28,18s5,21,28,18
			C6984.8,1674,6995.8,1667,6995.8,1658z"/>
	</g>
	<g id="Layer_2">
		<g>
			<path class="st2" d="M366.9,143.3h-79.2c21.4-14.5,45.6-26.2,71.8-34.4C359.1,114.1,358.2,135.4,366.9,143.3z"/>
			<path class="st2" d="M611.8,143.3h-81h-0.8c5.4-8.1,6.9-27.6,6.9-35.4C564.2,116.2,589.5,128.3,611.8,143.3z"/>
			<path class="st2" d="M398.1,175.6c-8.6,1.3-17,4.5-24.1,9.4c-1.3,0.9-2.7,1.9-4.2,2.4c-1.3,0.4-2.7,0.4-4.1,0.4
				c-18.6,0-37.1,0-55.7,0c-18.7,0-37.3,0-56,0c-2.6,0-5.2,0-7.8,0c-2.5,0-5.6,0.5-8-0.1c0.7-1.5,2.3-2.8,3.4-4
				c1.2-1.3,2.4-2.7,3.6-4c2.5-2.7,5.1-5.4,7.7-8c5.3-5.2,10.8-10.1,16.5-14.8c1.2-1,2.4-2,3.9-2.5c1.3-0.4,2.7-0.4,4.1-0.4
				c30.4,0,60.8,0,91.3,0c1.2,0,2.4,0,3.5,0.4c1.2,0.5,2.3,1.4,3.3,2.2c10.4,8.8,24.7,13,38.2,11c0,2.6,0,5.2,0,7.8
				C408.5,174.7,403.3,174.8,398.1,175.6z"/>
			<path class="st2" d="M661.5,187.7c-0.3-0.3-2.6,0-3.1,0c-1.2,0-2.4,0-3.6,0c-2.3,0-4.7,0-7,0c-4.7,0-9.3,0-14,0
				c-9.3,0-18.7,0-28,0c-18.7,0-37.3,0-56,0c-18.7,0-37.3,0-56,0c-9.3,0-18.7,0-28,0c-4.7,0-9.3,0-14,0c-1.4,0-4.9,0.6-5.9-0.4
				c-0.9-1-1.3-3.6-1.5-4.9c-1.3-7,0.8-14.5,5.7-19.7c10.2,10.1,25,15.2,39.2,13.5c14.2-1.7,27.5-10.2,35-22.4c32.2,0,64.4,0,96.7,0
				c2,0,4,0,5.9,0.8c1.4,0.6,2.6,1.6,3.8,2.5C641.7,166.5,652.1,176.7,661.5,187.7z"/>
			<path class="st2" d="M349.7,520.3h200.1c-30.8,10.9-64.6,16.9-100.1,16.9C414.3,537.2,380.5,531.2,349.7,520.3z"/>
			<path class="st2" d="M605.6,493.3c-11.9,7.6-24.6,14.3-38,20.1H331.8c-13.4-5.8-26-12.5-38-20.1H605.6z"/>
			<path class="st2" d="M643,464.3c-7.6,7.1-15.7,13.8-24.2,20h-338c-8.6-6.2-16.7-12.9-24.2-20H643z"/>
			<path class="st2" d="M669.1,435.4c-5.2,7-11,13.6-17.1,20H247.5c-6.1-6.4-11.8-13.1-17.1-20H669.1z"/>
		</g>
	</g>
</g>
</svg>
